<?xml version="1.0" standalone="no"?>
<!DOCTYPE svg PUBLIC "-//W3C//DTD SVG 20010904//EN"
 "http://www.w3.org/TR/2001/REC-SVG-20010904/DTD/svg10.dtd">
<svg version="1.0" xmlns="http://www.w3.org/2000/svg"
 width="600.000000pt" height="600.000000pt" viewBox="0 0 600.000000 600.000000"
 preserveAspectRatio="xMidYMid meet">
<metadata>
Created by potrace 1.14, written by Peter Selinger 2001-2017
</metadata>
<g transform="translate(0.000000,600.000000) scale(0.100000,-0.100000)"
fill="#000000" stroke="none">
<path d="M1700 5764 c-95 -13 -127 -19 -158 -28 -9 -3 -28 -7 -42 -10 -144
-24 -438 -174 -600 -305 -120 -97 -262 -255 -342 -381 -102 -159 -189 -374
-212 -520 -3 -19 -8 -46 -11 -60 -19 -89 -24 -293 -11 -444 26 -321 202 -696
436 -933 41 -41 59 -67 54 -75 -4 -7 -31 -42 -59 -78 -124 -155 -201 -294
-266 -479 -33 -95 -69 -233 -75 -296 -2 -22 -6 -56 -9 -75 -13 -84 -23 -1839
-11 -1859 10 -16 952 -16 962 0 3 6 7 401 7 878 0 931 0 929 53 1060 93 233
321 411 559 436 88 10 603 10 612 1 6 -6 8 -300 13 -1936 1 -280 5 -429 12
-437 8 -10 113 -13 479 -13 l469 0 9 23 c4 12 7 473 7 1025 -1 551 1 1003 4
1003 3 1 158 2 345 3 275 2 447 9 495 21 3 1 25 5 50 9 25 4 81 18 125 31 417
120 764 422 980 855 80 160 126 305 170 535 4 20 12 83 21 165 8 66 8 386 0
450 -15 130 -18 152 -31 225 -24 130 -82 301 -147 429 -149 297 -386 523 -684
654 -142 63 -232 87 -479 128 -22 3 -623 7 -1335 9 -1009 1 -1316 -1 -1390
-11z m2599 -949 c73 -10 171 -46 232 -86 108 -69 217 -230 254 -374 55 -211
30 -508 -59 -709 -71 -161 -215 -316 -341 -368 -97 -40 -114 -42 -462 -43
-189 0 -343 2 -344 5 -3 15 -4 1538 -1 1557 4 21 7 22 205 23 111 0 202 2 203
3 6 5 265 -1 313 -8z m-1708 -19 c4 -82 3 -1220 -1 -1226 -6 -9 -772 -6 -809
3 -215 54 -393 207 -466 402 -48 127 -52 273 -11 407 47 157 197 317 362 388
96 41 149 46 557 47 l367 0 1 -21z"/>
</g>
</svg>
